<?xml version="1.0" encoding="utf-8"?>
<!-- Generator: Adobe Illustrator 25.4.1, SVG Export Plug-In . SVG Version: 6.00 Build 0)  -->
<svg version="1.1" id="Layer_1" xmlns="http://www.w3.org/2000/svg" xmlns:xlink="http://www.w3.org/1999/xlink" x="0px" y="0px"
	 viewBox="0 0 41 29.6" style="enable-background:new 0 0 41 29.6;" xml:space="preserve">
<style type="text/css">
	.st0{fill:#FFFFFF;}
</style>
<path class="st0" d="M2.6,12.4H38c1.3,0,2.4,1.1,2.4,2.4l0,0c0,1.3-1.1,2.4-2.4,2.4H2.6c-1.3,0-2.4-1.1-2.4-2.4l0,0
	C0.2,13.5,1.3,12.4,2.6,12.4z"/>
<path class="st0" d="M14.4,24.3H38c1.3,0,2.4,1.1,2.4,2.4v0c0,1.3-1.1,2.4-2.4,2.4H14.4c-1.3,0-2.4-1.1-2.4-2.4v0
	C12,25.3,13.1,24.3,14.4,24.3z"/>
<path class="st0" d="M7.3,3c0-1.3,1.1-2.4,2.4-2.4H38c1.3,0,2.4,1.1,2.4,2.4l0,0c0,1.3-1.1,2.4-2.4,2.4H9.7C8.3,5.4,7.3,4.3,7.3,3
	L7.3,3z"/>
</svg>
